<svg xmlns="http://www.w3.org/2000/svg" viewBox="0 0 24 24" id="finder">
  <path fill="#303c42"
    d="M22.5 3.001h-8.438c.406-.711.854-1.453 1.357-2.227a.5.5 0 1 0-.839-.545 45.994 45.994 0 0 0-1.668 2.772H1.5a.5.5 0 0 0-.5.5v17a.5.5 0 0 0 .5.499h12.021c.44 1.665 1.006 2.679 1.045 2.747a.5.5 0 1 0 .868-.494c-.008-.015-.475-.851-.875-2.252h7.94a.5.5 0 0 0 .5-.5v-17a.498.498 0 0 0-.499-.5z"></path>
  <path fill="#29b6f6"
    d="M2 20V4h10.375C9.687 9.343 9.508 12.079 9.5 12.242a.531.531 0 0 0 .138.38.491.491 0 0 0 .361.159h3.39a25.488 25.488 0 0 0-.38 3.543 16.216 16.216 0 0 1-8.292-1.67.495.495 0 0 0-.668.24.524.524 0 0 0 .232.689c2.444 1.221 5.041 1.839 7.718 1.839.34 0 .674-.039 1.01-.059A16.8 16.8 0 0 0 13.291 20H2z"></path>
  <path fill="#fff" d="M2.594 4.594h9.491c.095-.197.187-.39.29-.594H2v16h.594V4.594z" opacity=".2"></path>
  <path fill="#fff"
    d="M22 20h-7.686a14.704 14.704 0 0 1-.305-2.615 17.677 17.677 0 0 0 5.709-1.668.5.5 0 1 0-.436-.9 16.727 16.727 0 0 1-5.266 1.546c.077-1.966.467-3.732.472-3.751A.5.5 0 0 0 14 12h-3.438c.17-1.114.788-3.956 2.948-8H22v16z"></path>
  <linearGradient id="a" x1="9.711" x2="21.956" y1="7.799" y2="20.044"
    gradientUnits="userSpaceOnUse">
    <stop offset="0" stop-opacity=".1"></stop>
    <stop offset="1" stop-opacity="0"></stop>
  </linearGradient>
  <path fill="url(#a)"
    d="M14 12a.5.5 0 0 1 .488.61c-.004.019-.395 1.785-.472 3.751a16.727 16.727 0 0 0 5.266-1.546.5.5 0 0 1 .436.9 17.645 17.645 0 0 1-5.709 1.668c.026.967.144 1.848.305 2.615H22v-7.51L13.51 4c-2.16 4.044-2.778 6.886-2.948 8H14z"></path>
  <path fill="#303c42"
    d="M6.5 9a.5.5 0 0 0 .5-.5v-2a.5.5 0 0 0-1 0v2a.5.5 0 0 0 .5.5zm10 0a.5.5 0 0 0 .5-.5v-2a.5.5 0 0 0-1 0v2a.5.5 0 0 0 .5.5z"></path>
  <linearGradient id="b" x1="6.019" x2="12.733" y1="13.846" y2="20.56"
    gradientUnits="userSpaceOnUse">
    <stop offset="0" stop-opacity=".1"></stop>
    <stop offset="1" stop-opacity="0"></stop>
  </linearGradient>
  <path fill="url(#b)"
    d="M13.01 17.363c-.337.02-.671.059-1.01.059-2.677 0-5.274-.619-7.718-1.839L8.7 20h4.593a16.676 16.676 0 0 1-.283-2.637z"></path>
  <linearGradient id="c" x1="-.334" x2="24.334" y1="6.249" y2="17.752"
    gradientUnits="userSpaceOnUse">
    <stop offset="0" stop-color="#fff" stop-opacity=".2"></stop>
    <stop offset="1" stop-color="#fff" stop-opacity="0"></stop>
  </linearGradient>
  <path fill="url(#c)"
    d="M22.5 3.001h-8.438c.406-.711.854-1.453 1.357-2.227a.5.5 0 1 0-.839-.545 45.994 45.994 0 0 0-1.668 2.772H1.5a.5.5 0 0 0-.5.5v17a.5.5 0 0 0 .5.499h12.021c.44 1.665 1.006 2.679 1.045 2.747a.5.5 0 1 0 .868-.494c-.008-.015-.475-.851-.875-2.252h7.94a.5.5 0 0 0 .5-.5v-17a.498.498 0 0 0-.499-.5z"></path>
</svg>