<?xml version="1.0" standalone="no"?>
<!DOCTYPE svg PUBLIC "-//W3C//DTD SVG 1.1//EN" "http://www.w3.org/Graphics/SVG/1.1/DTD/svg11.dtd"><!-- Uploaded to: SVG Repo, www.svgrepo.com, Generator: SVG Repo Mixer
Tools -->
<svg fill="#000000" width="800px" height="800px" t="1569683455503" class="icon" version="1.1"
  xmlns="http://www.w3.org/2000/svg" p-id="10463" xmlns:xlink="http://www.w3.org/1999/xlink">
  <defs>
    <style type="text/css"></style>
  </defs>
  <path
    d="M 470.4 292.6 H 100.8 c -12.39 0 -22.4 10.01 -22.4 22.4 v 289.8 c 0 12.39 10.01 22.4 22.4 22.4 h 369.6 c 12.39 0 22.4 -10.01 22.4 -22.4 V 315 c 0 -12.39 -10.01 -22.4 -22.4 -22.4 z m -30.8 281.4 H 131.6 V 345.8 h 308 v 228.2 z M 573.51 229.95 c -55.16 -70.49 -137.2 -107.52 -220.22 -107.94 l -0.14 -44.8 c 0 -4.55 -5.32 -7.07 -8.82 -4.27 l -89.6 70.7 c -2.8 2.17 -2.73 6.37 0 8.61 L 344.4 223.02 c 3.57 2.8 8.89 0.28 8.82 -4.27 v -44.73 c 9.03 0.07 18.13 0.63 27.16 1.75 c 29.47 3.64 57.47 12.74 83.3 27.09 c 26.67 14.84 49.84 34.79 68.88 59.01 c 18.97 24.29 32.69 51.59 40.67 81.06 c 7.7 28.49 9.8 57.89 6.23 87.36 c -0.49 3.78 -0.98 7.56 -1.68 11.27 h 52.43 c 10.36 -72.52 -7.91 -149.1 -56.7 -211.61 z"
    p-id="10465"></path>
</svg>