<?xml version="1.0" encoding="utf-8"?>
<!-- Svg Vector Icons : http://www.onlinewebfonts.com/icon -->
<!DOCTYPE svg PUBLIC "-//W3C//DTD SVG 1.1//EN" "http://www.w3.org/Graphics/SVG/1.1/DTD/svg11.dtd">
<svg version="1.1" xmlns="http://www.w3.org/2000/svg" xmlns:xlink="http://www.w3.org/1999/xlink" x="0px" y="0px" viewBox="0 0 256 256" enable-background="new 0 0 256 256" xml:space="preserve">
<metadata> Svg Vector Icons : http://www.onlinewebfonts.com/icon </metadata>
<g><g><g><path fill="#000000" d="M62.3,44.6V49h87.5h87.5v61.3v61.3h4.4h4.4v-65.7V40.3h-91.8H62.3V44.6z"/><path fill="#000000" d="M44.9,62.3v4.6h87.5h87.5V128v61.1h4.4h4.4v-65.7V57.7h-91.8H44.9V62.3z"/><path fill="#000000" d="M27.4,80v4.4h87.5h87.5v61.3V207h4.4h4.4v-65.7V75.7h-91.8H27.4V80z"/><path fill="#000000" d="M10,154.4v61.3h91.8h91.8v-61.3V93.1h-91.8H10V154.4z M184.9,154.4V207h-83.1H18.7v-52.6v-52.6h83.1h83.1V154.4z"/><path fill="#000000" d="M121.7,110.4c-6,9.9-50.1,86.9-50.1,87.3c0,0.4,16,0.6,52.1,0.6c28.6,0,52.1-0.1,52.1-0.3c0-0.3-51.7-90-52.1-90.5C123.5,107.5,122.7,108.8,121.7,110.4z"/><path fill="#000000" d="M37.3,177.7c-6,10.4-11,19.2-11.2,19.7c-0.3,0.9,1,0.9,22.1,0.9c21.1,0,22.4-0.1,22.2-0.9c-0.3-0.8-21.2-37.4-21.9-38.2C48.4,159,43.3,167.3,37.3,177.7z"/></g></g></g>
</svg>