<?xml version="1.0" encoding="UTF-8" standalone="no"?>
<!-- Created with Inkscape (http://www.inkscape.org/) -->

<svg
   xmlns:dc="http://purl.org/dc/elements/1.1/"
   xmlns:cc="http://creativecommons.org/ns#"
   xmlns:rdf="http://www.w3.org/1999/02/22-rdf-syntax-ns#"
   xmlns:svg="http://www.w3.org/2000/svg"
   xmlns="http://www.w3.org/2000/svg"
   xmlns:sodipodi="http://sodipodi.sourceforge.net/DTD/sodipodi-0.dtd"
   xmlns:inkscape="http://www.inkscape.org/namespaces/inkscape"
   version="1.1"
   width="35"
   height="33.93"
   id="svg2"
   xml:space="preserve"
   inkscape:version="0.48.1 r9760"
   sodipodi:docname="dark blue left arrow.svg"><sodipodi:namedview
     pagecolor="#ffffff"
     bordercolor="#666666"
     borderopacity="1"
     objecttolerance="10"
     gridtolerance="10"
     guidetolerance="10"
     inkscape:pageopacity="0"
     inkscape:pageshadow="2"
     inkscape:window-width="652"
     inkscape:window-height="480"
     id="namedview17"
     showgrid="false"
     fit-margin-top="0"
     fit-margin-left="0"
     fit-margin-right="0"
     fit-margin-bottom="0"
     inkscape:zoom="0.27878788"
     inkscape:cx="305.65955"
     inkscape:cy="157.40995"
     inkscape:window-x="0"
     inkscape:window-y="0"
     inkscape:window-maximized="0"
     inkscape:current-layer="svg2" /><metadata
     id="metadata8"><rdf:RDF><cc:Work
         rdf:about=""><dc:format>image/svg+xml</dc:format><dc:type
           rdf:resource="http://purl.org/dc/dcmitype/StillImage" /><dc:title /></cc:Work></rdf:RDF></metadata><defs
     id="defs6"><clipPath
       id="clipPath18"><path
         d="M 0,792 1224,792 1224,0 0,0 0,792 z"
         id="path20"
         inkscape:connector-curvature="0" /></clipPath><clipPath
       id="clipPath26"><path
         d="m 248.406,36 727.909,0 0,700.912 -727.909,0 0,-700.912 z"
         id="path28"
         inkscape:connector-curvature="0" /></clipPath><clipPath
       id="clipPath50"><path
         d="m 0,0 1224,0 0,792 L 0,792 0,0 z"
         id="path52"
         inkscape:connector-curvature="0" /></clipPath><clipPath
       id="clipPath60"><path
         d="M 0,792 1224,792 1224,0 0,0 0,792 z"
         id="path62"
         inkscape:connector-curvature="0" /></clipPath><clipPath
       id="clipPath78"><path
         d="m 0,0 1224,0 0,792 L 0,792 0,0 z"
         id="path80"
         inkscape:connector-curvature="0" /></clipPath></defs><g
     transform="matrix(1.25,0,0,-1.25,-459.34045,371.52005)"
     id="g10"><path
       d="m 383.07536,296.81604 -15.203,-13.205 15.203,-13.139 0,6.296 11.997,0 0,13.645 -11.997,0 0,6.403 z"
       id="path202"
       style="fill:#214f8f;fill-opacity:1;stroke:#214f8f;stroke-width:0.80000001;stroke-linecap:butt;stroke-linejoin:miter;stroke-miterlimit:4;stroke-opacity:1;stroke-dasharray:none"
       inkscape:connector-curvature="0" /></g></svg>